# xmcd CD database file
#
# Track frame offsets:
#	150
#	9619
#	21800
#	46151
#	64571
#	84688
#	102379
#	118704
#	134266
#	147160
#	162880
#	171500
#	191785
#	207416
#	224176
#	254540
#	294203
#
# Disc length: 4650 seconds
#
# Revision: 1
# Processed by: cddbd v1.5.2PL0 Copyright (c) Steve Scherf et al.
# Submitted via: CDex 1.51
#
DISCID=04122811
DTITLE=Jimmy Carl Black - Can I Borrow A Couple Of Bucks 'Til The End Of The Week
DYEAR=2007
DGENRE=Blues
TTITLE0=01 High and Mighty 
TTITLE1=02 Hamburger Midnight 
TTITLE2=03 Willin´
TTITLE3=04 Sick ´n Tired
TTITLE4=05 Low Ridin Man
TTITLE5=06 The Eternal Question 
TTITLE6=07 59 Chevy
TTITLE7=08 Love Me Two Times 
TTITLE8=09 Love Potion 
TTITLE9=10 Albuquerque Bound 
TTITLE10=11 Thank You, Mr Bill
TTITLE11=12 Lady Queen Bee 
TTITLE12=13 The
TTITLE13=14 Hoochie Coochie Man 
TTITLE14=15 An American National Anthem 
TTITLE15=16 The Great White Buffalo 
TTITLE16=17 Trail of Tears - 17 Trail of Tears
EXTD=YEAR: 2007
EXTT0=
EXTT1=
EXTT2=
EXTT3=
EXTT4=
EXTT5=
EXTT6=
EXTT7=
EXTT8=
EXTT9=
EXTT10=
EXTT11=
EXTT12=
EXTT13=
EXTT14=
EXTT15=
EXTT16=
PLAYORDER=
